<mxfile host="app.diagrams.net" modified="2024-06-23T12:45:31.168Z" agent="Mozilla/5.0 (Windows NT 10.0; Win64; x64) AppleWebKit/537.36 (KHTML, like Gecko) Chrome/126.0.0.0 Safari/537.36 Edg/126.0.0.0" etag="hxi7acrkxu6lqxcfuVs4" version="23.1.4" type="github">
  <diagram name="第 1 页" id="2leY5HMp6Ett028nWdfq">
    <mxGraphModel dx="2108" dy="2162" grid="1" gridSize="10" guides="1" tooltips="1" connect="1" arrows="1" fold="1" page="1" pageScale="1" pageWidth="400" pageHeight="350" math="0" shadow="0">
      <root>
        <mxCell id="0" />
        <mxCell id="1" parent="0" />
        <mxCell id="MMd7Z6TBkllvfIrQ2Aga-56" value="" style="rounded=1;whiteSpace=wrap;html=1;fillColor=#f5f5f5;fontColor=#333333;strokeColor=#666666;strokeWidth=2;" vertex="1" parent="1">
          <mxGeometry x="590" y="-190" width="350" height="250" as="geometry" />
        </mxCell>
        <mxCell id="MMd7Z6TBkllvfIrQ2Aga-55" value="" style="rounded=1;whiteSpace=wrap;html=1;fillColor=#f5f5f5;fontColor=#333333;strokeColor=#666666;strokeWidth=2;" vertex="1" parent="1">
          <mxGeometry x="660" y="-465" width="300" height="215" as="geometry" />
        </mxCell>
        <mxCell id="MMd7Z6TBkllvfIrQ2Aga-54" value="" style="rounded=1;whiteSpace=wrap;html=1;fillColor=#f5f5f5;fontColor=#333333;strokeColor=#666666;strokeWidth=2;" vertex="1" parent="1">
          <mxGeometry x="610" y="-700" width="300" height="190" as="geometry" />
        </mxCell>
        <mxCell id="MMd7Z6TBkllvfIrQ2Aga-1" value="" style="ellipse;whiteSpace=wrap;html=1;aspect=fixed;strokeColor=#CC0000;strokeWidth=3;" vertex="1" parent="1">
          <mxGeometry x="50" y="-455" width="40" height="40" as="geometry" />
        </mxCell>
        <mxCell id="MMd7Z6TBkllvfIrQ2Aga-2" value="" style="ellipse;whiteSpace=wrap;html=1;aspect=fixed;strokeColor=#CC0000;strokeWidth=3;" vertex="1" parent="1">
          <mxGeometry x="90" y="-325" width="40" height="40" as="geometry" />
        </mxCell>
        <mxCell id="MMd7Z6TBkllvfIrQ2Aga-3" value="" style="ellipse;whiteSpace=wrap;html=1;aspect=fixed;strokeColor=#CC0000;strokeWidth=3;" vertex="1" parent="1">
          <mxGeometry x="180" y="-415" width="40" height="40" as="geometry" />
        </mxCell>
        <mxCell id="MMd7Z6TBkllvfIrQ2Aga-4" value="" style="ellipse;whiteSpace=wrap;html=1;aspect=fixed;strokeColor=#CC0000;strokeWidth=3;" vertex="1" parent="1">
          <mxGeometry x="250" y="-340" width="40" height="40" as="geometry" />
        </mxCell>
        <mxCell id="MMd7Z6TBkllvfIrQ2Aga-5" value="" style="ellipse;whiteSpace=wrap;html=1;aspect=fixed;strokeColor=#CC0000;strokeWidth=3;" vertex="1" parent="1">
          <mxGeometry x="320" y="-465" width="40" height="40" as="geometry" />
        </mxCell>
        <mxCell id="MMd7Z6TBkllvfIrQ2Aga-6" value="" style="ellipse;whiteSpace=wrap;html=1;aspect=fixed;strokeColor=#CC0000;strokeWidth=3;" vertex="1" parent="1">
          <mxGeometry x="360" y="-270" width="40" height="40" as="geometry" />
        </mxCell>
        <mxCell id="MMd7Z6TBkllvfIrQ2Aga-7" value="" style="ellipse;whiteSpace=wrap;html=1;aspect=fixed;strokeColor=#CC0000;strokeWidth=3;" vertex="1" parent="1">
          <mxGeometry y="-360" width="40" height="40" as="geometry" />
        </mxCell>
        <mxCell id="MMd7Z6TBkllvfIrQ2Aga-8" value="" style="endArrow=none;html=1;rounded=0;strokeWidth=3;exitX=0.017;exitY=0.313;exitDx=0;exitDy=0;exitPerimeter=0;" edge="1" parent="1" source="MMd7Z6TBkllvfIrQ2Aga-2">
          <mxGeometry width="50" height="50" relative="1" as="geometry">
            <mxPoint x="-10" y="-285" as="sourcePoint" />
            <mxPoint x="40" y="-335" as="targetPoint" />
          </mxGeometry>
        </mxCell>
        <mxCell id="MMd7Z6TBkllvfIrQ2Aga-9" value="" style="endArrow=none;html=1;rounded=0;strokeWidth=3;exitX=0.321;exitY=0.022;exitDx=0;exitDy=0;exitPerimeter=0;entryX=0.609;entryY=1;entryDx=0;entryDy=0;entryPerimeter=0;" edge="1" parent="1" source="MMd7Z6TBkllvfIrQ2Aga-2" target="MMd7Z6TBkllvfIrQ2Aga-1">
          <mxGeometry width="50" height="50" relative="1" as="geometry">
            <mxPoint x="121" y="-392" as="sourcePoint" />
            <mxPoint x="70" y="-415" as="targetPoint" />
          </mxGeometry>
        </mxCell>
        <mxCell id="MMd7Z6TBkllvfIrQ2Aga-10" value="" style="endArrow=none;html=1;rounded=0;strokeWidth=3;exitX=0.027;exitY=0.324;exitDx=0;exitDy=0;exitPerimeter=0;entryX=0.974;entryY=0.663;entryDx=0;entryDy=0;entryPerimeter=0;" edge="1" parent="1" source="MMd7Z6TBkllvfIrQ2Aga-3" target="MMd7Z6TBkllvfIrQ2Aga-1">
          <mxGeometry width="50" height="50" relative="1" as="geometry">
            <mxPoint x="141" y="-402" as="sourcePoint" />
            <mxPoint x="90" y="-425" as="targetPoint" />
          </mxGeometry>
        </mxCell>
        <mxCell id="MMd7Z6TBkllvfIrQ2Aga-11" value="" style="endArrow=none;html=1;rounded=0;strokeWidth=3;exitX=0.906;exitY=0.204;exitDx=0;exitDy=0;exitPerimeter=0;" edge="1" parent="1" source="MMd7Z6TBkllvfIrQ2Aga-2" target="MMd7Z6TBkllvfIrQ2Aga-3">
          <mxGeometry width="50" height="50" relative="1" as="geometry">
            <mxPoint x="111" y="-292" as="sourcePoint" />
            <mxPoint x="60" y="-315" as="targetPoint" />
          </mxGeometry>
        </mxCell>
        <mxCell id="MMd7Z6TBkllvfIrQ2Aga-12" value="" style="endArrow=none;html=1;rounded=0;strokeWidth=3;exitX=1.003;exitY=0.597;exitDx=0;exitDy=0;exitPerimeter=0;entryX=-0.006;entryY=0.597;entryDx=0;entryDy=0;entryPerimeter=0;" edge="1" parent="1" source="MMd7Z6TBkllvfIrQ2Aga-2" target="MMd7Z6TBkllvfIrQ2Aga-4">
          <mxGeometry width="50" height="50" relative="1" as="geometry">
            <mxPoint x="136" y="-307" as="sourcePoint" />
            <mxPoint x="196" y="-370" as="targetPoint" />
          </mxGeometry>
        </mxCell>
        <mxCell id="MMd7Z6TBkllvfIrQ2Aga-13" value="" style="endArrow=none;html=1;rounded=0;strokeWidth=3;entryX=0;entryY=0;entryDx=0;entryDy=0;" edge="1" parent="1" source="MMd7Z6TBkllvfIrQ2Aga-3" target="MMd7Z6TBkllvfIrQ2Aga-4">
          <mxGeometry width="50" height="50" relative="1" as="geometry">
            <mxPoint x="140" y="-291" as="sourcePoint" />
            <mxPoint x="262" y="-300" as="targetPoint" />
          </mxGeometry>
        </mxCell>
        <mxCell id="MMd7Z6TBkllvfIrQ2Aga-14" value="" style="endArrow=none;html=1;rounded=0;strokeWidth=3;exitX=0.975;exitY=0.358;exitDx=0;exitDy=0;exitPerimeter=0;entryX=0.04;entryY=0.72;entryDx=0;entryDy=0;entryPerimeter=0;" edge="1" parent="1" source="MMd7Z6TBkllvfIrQ2Aga-3" target="MMd7Z6TBkllvfIrQ2Aga-5">
          <mxGeometry width="50" height="50" relative="1" as="geometry">
            <mxPoint x="136" y="-307" as="sourcePoint" />
            <mxPoint x="196" y="-370" as="targetPoint" />
          </mxGeometry>
        </mxCell>
        <mxCell id="MMd7Z6TBkllvfIrQ2Aga-15" value="" style="endArrow=none;html=1;rounded=0;strokeWidth=3;entryX=0.923;entryY=0.216;entryDx=0;entryDy=0;exitX=0.292;exitY=0.963;exitDx=0;exitDy=0;exitPerimeter=0;entryPerimeter=0;" edge="1" parent="1" source="MMd7Z6TBkllvfIrQ2Aga-5" target="MMd7Z6TBkllvfIrQ2Aga-4">
          <mxGeometry width="50" height="50" relative="1" as="geometry">
            <mxPoint x="223" y="-370" as="sourcePoint" />
            <mxPoint x="266" y="-324" as="targetPoint" />
          </mxGeometry>
        </mxCell>
        <mxCell id="MMd7Z6TBkllvfIrQ2Aga-16" value="" style="endArrow=none;html=1;rounded=0;strokeWidth=3;exitX=1.012;exitY=0.625;exitDx=0;exitDy=0;exitPerimeter=0;entryX=0.073;entryY=0.237;entryDx=0;entryDy=0;entryPerimeter=0;" edge="1" parent="1" source="MMd7Z6TBkllvfIrQ2Aga-4" target="MMd7Z6TBkllvfIrQ2Aga-6">
          <mxGeometry width="50" height="50" relative="1" as="geometry">
            <mxPoint x="223" y="-370" as="sourcePoint" />
            <mxPoint x="390" y="-275" as="targetPoint" />
          </mxGeometry>
        </mxCell>
        <mxCell id="MMd7Z6TBkllvfIrQ2Aga-17" value="" style="endArrow=none;html=1;rounded=0;strokeWidth=3;entryX=0.308;entryY=0.021;entryDx=0;entryDy=0;exitX=0.755;exitY=0.968;exitDx=0;exitDy=0;exitPerimeter=0;entryPerimeter=0;" edge="1" parent="1" source="MMd7Z6TBkllvfIrQ2Aga-5" target="MMd7Z6TBkllvfIrQ2Aga-6">
          <mxGeometry width="50" height="50" relative="1" as="geometry">
            <mxPoint x="342" y="-416" as="sourcePoint" />
            <mxPoint x="297" y="-321" as="targetPoint" />
          </mxGeometry>
        </mxCell>
        <mxCell id="MMd7Z6TBkllvfIrQ2Aga-18" value="" style="ellipse;whiteSpace=wrap;html=1;aspect=fixed;strokeColor=#CC0000;strokeWidth=3;" vertex="1" parent="1">
          <mxGeometry x="700" y="-690" width="40" height="40" as="geometry" />
        </mxCell>
        <mxCell id="MMd7Z6TBkllvfIrQ2Aga-19" value="" style="ellipse;whiteSpace=wrap;html=1;aspect=fixed;strokeColor=#CC0000;strokeWidth=3;" vertex="1" parent="1">
          <mxGeometry x="740" y="-560" width="40" height="40" as="geometry" />
        </mxCell>
        <mxCell id="MMd7Z6TBkllvfIrQ2Aga-20" value="" style="ellipse;whiteSpace=wrap;html=1;aspect=fixed;strokeColor=#CC0000;strokeWidth=3;" vertex="1" parent="1">
          <mxGeometry x="830" y="-650" width="40" height="40" as="geometry" />
        </mxCell>
        <mxCell id="MMd7Z6TBkllvfIrQ2Aga-21" value="" style="ellipse;whiteSpace=wrap;html=1;aspect=fixed;strokeColor=#CC0000;strokeWidth=3;" vertex="1" parent="1">
          <mxGeometry x="650" y="-595" width="40" height="40" as="geometry" />
        </mxCell>
        <mxCell id="MMd7Z6TBkllvfIrQ2Aga-22" value="" style="endArrow=none;html=1;rounded=0;strokeWidth=3;exitX=0.017;exitY=0.313;exitDx=0;exitDy=0;exitPerimeter=0;" edge="1" parent="1" source="MMd7Z6TBkllvfIrQ2Aga-19">
          <mxGeometry width="50" height="50" relative="1" as="geometry">
            <mxPoint x="640" y="-520" as="sourcePoint" />
            <mxPoint x="690" y="-570" as="targetPoint" />
          </mxGeometry>
        </mxCell>
        <mxCell id="MMd7Z6TBkllvfIrQ2Aga-23" value="" style="endArrow=none;html=1;rounded=0;strokeWidth=3;exitX=0.321;exitY=0.022;exitDx=0;exitDy=0;exitPerimeter=0;entryX=0.609;entryY=1;entryDx=0;entryDy=0;entryPerimeter=0;" edge="1" parent="1" source="MMd7Z6TBkllvfIrQ2Aga-19" target="MMd7Z6TBkllvfIrQ2Aga-18">
          <mxGeometry width="50" height="50" relative="1" as="geometry">
            <mxPoint x="771" y="-627" as="sourcePoint" />
            <mxPoint x="720" y="-650" as="targetPoint" />
          </mxGeometry>
        </mxCell>
        <mxCell id="MMd7Z6TBkllvfIrQ2Aga-24" value="" style="endArrow=none;html=1;rounded=0;strokeWidth=3;exitX=0.027;exitY=0.324;exitDx=0;exitDy=0;exitPerimeter=0;entryX=0.974;entryY=0.663;entryDx=0;entryDy=0;entryPerimeter=0;" edge="1" parent="1" source="MMd7Z6TBkllvfIrQ2Aga-20" target="MMd7Z6TBkllvfIrQ2Aga-18">
          <mxGeometry width="50" height="50" relative="1" as="geometry">
            <mxPoint x="791" y="-637" as="sourcePoint" />
            <mxPoint x="740" y="-660" as="targetPoint" />
          </mxGeometry>
        </mxCell>
        <mxCell id="MMd7Z6TBkllvfIrQ2Aga-25" value="" style="endArrow=none;html=1;rounded=0;strokeWidth=3;exitX=0.906;exitY=0.204;exitDx=0;exitDy=0;exitPerimeter=0;" edge="1" parent="1" source="MMd7Z6TBkllvfIrQ2Aga-19" target="MMd7Z6TBkllvfIrQ2Aga-20">
          <mxGeometry width="50" height="50" relative="1" as="geometry">
            <mxPoint x="761" y="-527" as="sourcePoint" />
            <mxPoint x="710" y="-550" as="targetPoint" />
          </mxGeometry>
        </mxCell>
        <mxCell id="MMd7Z6TBkllvfIrQ2Aga-35" value="" style="endArrow=none;html=1;rounded=0;strokeWidth=3;exitX=1;exitY=1;exitDx=0;exitDy=0;entryX=0.018;entryY=0.633;entryDx=0;entryDy=0;entryPerimeter=0;" edge="1" parent="1" source="MMd7Z6TBkllvfIrQ2Aga-2" target="MMd7Z6TBkllvfIrQ2Aga-6">
          <mxGeometry width="50" height="50" relative="1" as="geometry">
            <mxPoint x="140" y="-291" as="sourcePoint" />
            <mxPoint x="410" y="-265" as="targetPoint" />
          </mxGeometry>
        </mxCell>
        <mxCell id="MMd7Z6TBkllvfIrQ2Aga-36" value="" style="ellipse;whiteSpace=wrap;html=1;aspect=fixed;strokeColor=#CC0000;strokeWidth=3;" vertex="1" parent="1">
          <mxGeometry x="670" y="-305" width="40" height="40" as="geometry" />
        </mxCell>
        <mxCell id="MMd7Z6TBkllvfIrQ2Aga-37" value="" style="ellipse;whiteSpace=wrap;html=1;aspect=fixed;strokeColor=#CC0000;strokeWidth=3;" vertex="1" parent="1">
          <mxGeometry x="760" y="-395" width="40" height="40" as="geometry" />
        </mxCell>
        <mxCell id="MMd7Z6TBkllvfIrQ2Aga-38" value="" style="ellipse;whiteSpace=wrap;html=1;aspect=fixed;strokeColor=#CC0000;strokeWidth=3;" vertex="1" parent="1">
          <mxGeometry x="830" y="-320" width="40" height="40" as="geometry" />
        </mxCell>
        <mxCell id="MMd7Z6TBkllvfIrQ2Aga-39" value="" style="ellipse;whiteSpace=wrap;html=1;aspect=fixed;strokeColor=#CC0000;strokeWidth=3;" vertex="1" parent="1">
          <mxGeometry x="900" y="-445" width="40" height="40" as="geometry" />
        </mxCell>
        <mxCell id="MMd7Z6TBkllvfIrQ2Aga-40" value="" style="endArrow=none;html=1;rounded=0;strokeWidth=3;exitX=0.906;exitY=0.204;exitDx=0;exitDy=0;exitPerimeter=0;" edge="1" parent="1" source="MMd7Z6TBkllvfIrQ2Aga-36" target="MMd7Z6TBkllvfIrQ2Aga-37">
          <mxGeometry width="50" height="50" relative="1" as="geometry">
            <mxPoint x="691" y="-272" as="sourcePoint" />
            <mxPoint x="640" y="-295" as="targetPoint" />
          </mxGeometry>
        </mxCell>
        <mxCell id="MMd7Z6TBkllvfIrQ2Aga-41" value="" style="endArrow=none;html=1;rounded=0;strokeWidth=3;exitX=1.003;exitY=0.597;exitDx=0;exitDy=0;exitPerimeter=0;entryX=-0.006;entryY=0.597;entryDx=0;entryDy=0;entryPerimeter=0;" edge="1" parent="1" source="MMd7Z6TBkllvfIrQ2Aga-36" target="MMd7Z6TBkllvfIrQ2Aga-38">
          <mxGeometry width="50" height="50" relative="1" as="geometry">
            <mxPoint x="716" y="-287" as="sourcePoint" />
            <mxPoint x="776" y="-350" as="targetPoint" />
          </mxGeometry>
        </mxCell>
        <mxCell id="MMd7Z6TBkllvfIrQ2Aga-42" value="" style="endArrow=none;html=1;rounded=0;strokeWidth=3;entryX=0;entryY=0;entryDx=0;entryDy=0;" edge="1" parent="1" source="MMd7Z6TBkllvfIrQ2Aga-37" target="MMd7Z6TBkllvfIrQ2Aga-38">
          <mxGeometry width="50" height="50" relative="1" as="geometry">
            <mxPoint x="720" y="-271" as="sourcePoint" />
            <mxPoint x="842" y="-280" as="targetPoint" />
          </mxGeometry>
        </mxCell>
        <mxCell id="MMd7Z6TBkllvfIrQ2Aga-43" value="" style="endArrow=none;html=1;rounded=0;strokeWidth=3;exitX=0.975;exitY=0.358;exitDx=0;exitDy=0;exitPerimeter=0;entryX=0.04;entryY=0.72;entryDx=0;entryDy=0;entryPerimeter=0;" edge="1" parent="1" source="MMd7Z6TBkllvfIrQ2Aga-37" target="MMd7Z6TBkllvfIrQ2Aga-39">
          <mxGeometry width="50" height="50" relative="1" as="geometry">
            <mxPoint x="716" y="-287" as="sourcePoint" />
            <mxPoint x="776" y="-350" as="targetPoint" />
          </mxGeometry>
        </mxCell>
        <mxCell id="MMd7Z6TBkllvfIrQ2Aga-44" value="" style="endArrow=none;html=1;rounded=0;strokeWidth=3;entryX=0.923;entryY=0.216;entryDx=0;entryDy=0;exitX=0.292;exitY=0.963;exitDx=0;exitDy=0;exitPerimeter=0;entryPerimeter=0;" edge="1" parent="1" source="MMd7Z6TBkllvfIrQ2Aga-39" target="MMd7Z6TBkllvfIrQ2Aga-38">
          <mxGeometry width="50" height="50" relative="1" as="geometry">
            <mxPoint x="803" y="-350" as="sourcePoint" />
            <mxPoint x="846" y="-304" as="targetPoint" />
          </mxGeometry>
        </mxCell>
        <mxCell id="MMd7Z6TBkllvfIrQ2Aga-57" value="" style="ellipse;whiteSpace=wrap;html=1;aspect=fixed;strokeColor=#CC0000;strokeWidth=3;" vertex="1" parent="1">
          <mxGeometry x="605" y="-45" width="40" height="40" as="geometry" />
        </mxCell>
        <mxCell id="MMd7Z6TBkllvfIrQ2Aga-58" value="" style="ellipse;whiteSpace=wrap;html=1;aspect=fixed;strokeColor=#CC0000;strokeWidth=3;" vertex="1" parent="1">
          <mxGeometry x="765" y="-60" width="40" height="40" as="geometry" />
        </mxCell>
        <mxCell id="MMd7Z6TBkllvfIrQ2Aga-59" value="" style="ellipse;whiteSpace=wrap;html=1;aspect=fixed;strokeColor=#CC0000;strokeWidth=3;" vertex="1" parent="1">
          <mxGeometry x="835" y="-185" width="40" height="40" as="geometry" />
        </mxCell>
        <mxCell id="MMd7Z6TBkllvfIrQ2Aga-60" value="" style="ellipse;whiteSpace=wrap;html=1;aspect=fixed;strokeColor=#CC0000;strokeWidth=3;" vertex="1" parent="1">
          <mxGeometry x="875" y="10" width="40" height="40" as="geometry" />
        </mxCell>
        <mxCell id="MMd7Z6TBkllvfIrQ2Aga-61" value="" style="endArrow=none;html=1;rounded=0;strokeWidth=3;exitX=1.003;exitY=0.597;exitDx=0;exitDy=0;exitPerimeter=0;entryX=-0.006;entryY=0.597;entryDx=0;entryDy=0;entryPerimeter=0;" edge="1" parent="1" source="MMd7Z6TBkllvfIrQ2Aga-57" target="MMd7Z6TBkllvfIrQ2Aga-58">
          <mxGeometry width="50" height="50" relative="1" as="geometry">
            <mxPoint x="651" y="-27" as="sourcePoint" />
            <mxPoint x="711" y="-90" as="targetPoint" />
          </mxGeometry>
        </mxCell>
        <mxCell id="MMd7Z6TBkllvfIrQ2Aga-62" value="" style="endArrow=none;html=1;rounded=0;strokeWidth=3;entryX=0.923;entryY=0.216;entryDx=0;entryDy=0;exitX=0.292;exitY=0.963;exitDx=0;exitDy=0;exitPerimeter=0;entryPerimeter=0;" edge="1" parent="1" source="MMd7Z6TBkllvfIrQ2Aga-59" target="MMd7Z6TBkllvfIrQ2Aga-58">
          <mxGeometry width="50" height="50" relative="1" as="geometry">
            <mxPoint x="738" y="-90" as="sourcePoint" />
            <mxPoint x="781" y="-44" as="targetPoint" />
          </mxGeometry>
        </mxCell>
        <mxCell id="MMd7Z6TBkllvfIrQ2Aga-63" value="" style="endArrow=none;html=1;rounded=0;strokeWidth=3;exitX=1.012;exitY=0.625;exitDx=0;exitDy=0;exitPerimeter=0;entryX=0.073;entryY=0.237;entryDx=0;entryDy=0;entryPerimeter=0;" edge="1" parent="1" source="MMd7Z6TBkllvfIrQ2Aga-58" target="MMd7Z6TBkllvfIrQ2Aga-60">
          <mxGeometry width="50" height="50" relative="1" as="geometry">
            <mxPoint x="738" y="-90" as="sourcePoint" />
            <mxPoint x="905" y="5" as="targetPoint" />
          </mxGeometry>
        </mxCell>
        <mxCell id="MMd7Z6TBkllvfIrQ2Aga-64" value="" style="endArrow=none;html=1;rounded=0;strokeWidth=3;entryX=0.308;entryY=0.021;entryDx=0;entryDy=0;exitX=0.755;exitY=0.968;exitDx=0;exitDy=0;exitPerimeter=0;entryPerimeter=0;" edge="1" parent="1" source="MMd7Z6TBkllvfIrQ2Aga-59" target="MMd7Z6TBkllvfIrQ2Aga-60">
          <mxGeometry width="50" height="50" relative="1" as="geometry">
            <mxPoint x="857" y="-136" as="sourcePoint" />
            <mxPoint x="812" y="-41" as="targetPoint" />
          </mxGeometry>
        </mxCell>
        <mxCell id="MMd7Z6TBkllvfIrQ2Aga-65" value="" style="endArrow=none;html=1;rounded=0;strokeWidth=3;exitX=1;exitY=1;exitDx=0;exitDy=0;entryX=0.018;entryY=0.633;entryDx=0;entryDy=0;entryPerimeter=0;" edge="1" parent="1" source="MMd7Z6TBkllvfIrQ2Aga-57" target="MMd7Z6TBkllvfIrQ2Aga-60">
          <mxGeometry width="50" height="50" relative="1" as="geometry">
            <mxPoint x="655" y="-11" as="sourcePoint" />
            <mxPoint x="925" y="15" as="targetPoint" />
          </mxGeometry>
        </mxCell>
        <mxCell id="MMd7Z6TBkllvfIrQ2Aga-66" value="&lt;font style=&quot;font-size: 24px;&quot;&gt;&lt;b&gt;Logic Network&lt;/b&gt;&lt;/font&gt;" style="text;html=1;align=center;verticalAlign=middle;whiteSpace=wrap;rounded=0;" vertex="1" parent="1">
          <mxGeometry x="110" y="-230" width="210" height="30" as="geometry" />
        </mxCell>
      </root>
    </mxGraphModel>
  </diagram>
</mxfile>
